<svg width="111.218750" height="18.000000" viewBox="0 0 111.219 18" fill="none" xmlns="http://www.w3.org/2000/svg" xmlns:xlink="http://www.w3.org/1999/xlink">
	<desc>
			Created with Pixso.
	</desc>
	<defs/>
	<path d="M33.83 13.5084C33.1757 13.2206 32.5309 12.8972 31.8954 12.5383L30 15.4205C30.6654 15.8019 31.3888 16.1514 32.17 16.4691C32.9514 16.7869 33.7738 17.0598 34.6373 17.2878C35.501 17.5159 36.4037 17.6915 37.3458 17.8149C38.2878 17.9384 39.2523 18 40.2393 18C41.7346 18 43.0916 17.8599 44.3103 17.5795C45.5289 17.2991 46.5701 16.8878 47.4336 16.3458C48.2972 15.8037 48.9626 15.1383 49.4299 14.3495C49.8972 13.5608 50.1309 12.6617 50.1309 11.6523C50.1309 10.8972 49.9926 10.215 49.7159 9.60559C49.4392 8.99622 49.0317 8.47668 48.4934 8.04675C47.9551 7.61682 47.2878 7.28601 46.4916 7.0542C45.6953 6.82239 44.7814 6.70654 43.7495 6.70654C43.2037 6.70654 42.6411 6.73462 42.0616 6.79065C41.4822 6.84668 40.9141 6.90845 40.3571 6.97571L39.5411 7.07239L38.7645 7.16077C38.2598 7.2168 37.8131 7.24487 37.4243 7.24487C36.4598 7.24487 35.7421 7.07849 35.271 6.74585C34.8 6.41309 34.5645 5.98511 34.5645 5.46167C34.5645 5.1925 34.6373 4.92151 34.7832 4.64856C34.929 4.37573 35.1887 4.12903 35.5626 3.90845C35.9364 3.68787 36.4392 3.50659 37.071 3.3645C37.7028 3.22241 38.5084 3.15137 39.4878 3.15137C40.1757 3.15137 40.8505 3.19067 41.5122 3.26917C42.1738 3.34766 42.8149 3.45422 43.4355 3.58875C44.056 3.72339 44.6505 3.8822 45.2188 4.06543C45.7869 4.24866 46.3177 4.44861 46.8112 4.66541L48.3701 1.79443C47.772 1.52527 47.1252 1.2804 46.4299 1.05981C45.7346 0.839233 45.0112 0.650513 44.2598 0.493408C43.5084 0.336426 42.7365 0.214966 41.944 0.129028C41.1514 0.0429688 40.3627 0 39.5775 0C38.4934 0 37.5271 0.0766602 36.6785 0.229858C35.83 0.383179 35.0823 0.59436 34.4355 0.863525C33.7888 1.13269 33.2374 1.45239 32.7812 1.82239C32.3252 2.1925 31.9532 2.59253 31.6654 3.02246C31.3776 3.45239 31.1682 3.90283 31.0374 4.37378C30.9065 4.84485 30.8411 5.31958 30.8411 5.7981C30.8411 6.60559 31.0056 7.31213 31.3346 7.91772C31.6636 8.52332 32.1066 9.02808 32.6636 9.43176C33.2206 9.83557 33.8599 10.1383 34.5813 10.3402C35.3029 10.5421 36.056 10.6429 36.8411 10.6429C37.3121 10.6429 37.8149 10.6112 38.3495 10.5476C38.8842 10.4841 39.4261 10.4149 39.9757 10.3402L40.7958 10.2323L41.6074 10.1327C42.1458 10.0692 42.658 10.0374 43.1439 10.0374C44.2505 10.0374 45.0692 10.2224 45.6 10.5925C46.1309 10.9626 46.3962 11.4655 46.3962 12.101C46.3962 12.4972 46.2897 12.8635 46.0767 13.2C45.8635 13.5365 45.5233 13.8262 45.056 14.0692C44.5887 14.3121 43.9851 14.5028 43.2449 14.6411C42.5046 14.7794 41.6074 14.8486 40.5532 14.8486C39.6785 14.8486 38.8542 14.7963 38.0803 14.6915C37.3065 14.5869 36.5682 14.4355 35.8655 14.2374C35.1626 14.0393 34.4841 13.7963 33.83 13.5084ZM0 0.224243L3.57751 0.224243L3.57751 17.7533L0 17.7533L0 0.224243ZM8.08594 0.224243L11.6411 0.224243L22.5645 5.94397L22.5645 0.224243L26.1196 0.224243L26.1196 17.7533L22.5645 17.7533L22.5645 9.71216L11.6411 4.02612L11.6411 17.7533L8.08594 17.7533L8.08594 0.224243ZM53.3832 0.224243L56.9384 0.224243L56.9384 9.88037C56.9384 10.6729 57.0468 11.3776 57.2635 11.9944C57.4803 12.6112 57.8037 13.1327 58.2336 13.5588C58.6636 13.9851 59.1963 14.3083 59.8318 14.5289C60.4673 14.7495 61.2075 14.8599 62.0524 14.8599C62.8898 14.8599 63.6281 14.7495 64.2673 14.5289C64.9065 14.3083 65.4412 13.9851 65.8711 13.5588C66.3009 13.1327 66.6243 12.6112 66.8411 11.9944C67.058 11.3776 67.1664 10.6729 67.1664 9.88037L67.1664 0.224243L70.7214 0.224243L70.7214 10.3065C70.7214 11.458 70.5271 12.5046 70.1383 13.4468C69.7495 14.3888 69.1851 15.1963 68.4448 15.8691C67.7047 16.5421 66.7981 17.0616 65.7252 17.428C64.6523 17.7944 63.4281 17.9775 62.0524 17.9775C60.6766 17.9775 59.4524 17.7944 58.3794 17.428C57.3065 17.0616 56.4 16.5421 55.6598 15.8691C54.9197 15.1963 54.3551 14.3888 53.9663 13.4468C53.5775 12.5046 53.3832 11.458 53.3832 10.3065L53.3832 0.224243ZM83.9663 0.224243L75.0504 0.224243L75.0504 17.7533L78.6056 17.7533L78.6056 12.7626L84.0897 12.7738L87.387 17.7533L91.7383 17.7533L87.9253 12.1458C88.5907 11.8916 89.17 11.572 89.6636 11.1869C90.157 10.8019 90.5664 10.3627 90.8916 9.86914C91.2168 9.37573 91.458 8.83557 91.615 8.24866C91.772 7.66162 91.8505 7.04297 91.8505 6.39258C91.8505 5.42798 91.6917 4.56445 91.3738 3.80188C91.056 3.03931 90.572 2.39258 89.9215 1.86169C89.271 1.33081 88.4524 0.925293 87.4655 0.644897C86.4785 0.364502 85.3121 0.224243 83.9663 0.224243ZM110.983 0.224243L96.056 0.224243L96.056 17.7533L111.219 17.7533L111.219 14.6467L99.6112 14.6467L99.6112 9.76819L109.682 9.76819L109.682 6.84106L99.6112 6.84106L99.6112 3.34204L110.983 3.34204L110.983 0.224243ZM84.056 9.6897C84.729 9.6897 85.3177 9.61121 85.8224 9.45422C86.3271 9.29724 86.7495 9.07666 87.0897 8.79248C87.4299 8.50842 87.6841 8.1626 87.8523 7.75513C88.0205 7.34766 88.1047 6.89343 88.1047 6.39258C88.1047 5.41309 87.7682 4.65613 87.0953 4.12146C86.4224 3.58691 85.4093 3.31958 84.056 3.31958L78.6056 3.31958L78.6056 9.6897L84.056 9.6897Z" clip-rule="evenodd" fill="#2C2830" fill-opacity="1.000000" fill-rule="evenodd"/>
</svg>
